<svg xmlns="http://www.w3.org/2000/svg" width="125.577" height="118.6" viewBox="0 0 125.577 118.6">
  <g id="Group_19" data-name="Group 19" transform="translate(-1369.423 -2170.4)">
    <text id="C_" data-name="C#" transform="translate(1461 2275)" fill="#bfbfbf" font-size="40" font-family="Poppins-Bold, Poppins" font-weight="700"><tspan x="-33.32" y="0">C#</tspan></text>
    <path id="iconmonstr-coffee-9" d="M16.449,4.935c-1.91,5.184,7.8,5.9-.221,13.236C18.866,12.356,9.73,12.169,16.449,4.935ZM23.3,18.168C35.348,7.084,20.806,7.671,23.6,0,13.975,9.908,27.18,10.129,23.3,18.168ZM43,25.958q-.217,2.73-.641,5.192H46.3a15.05,15.05,0,0,1-5.847,7.564,49.28,49.28,0,0,1-3.2,7.4c8.33-2.967,14.872-11.7,15.625-20.159H43ZM12.174,51.917C6.644,44.119,2,35.6,2,20.767H40.152c0,14.711-4.782,23.593-10.174,31.15h-17.8ZM7.313,25.958a43.046,43.046,0,0,0,2.2,10.383H32.621a42.608,42.608,0,0,0,2.218-10.383ZM2,62.3H40.152V57.108H2V62.3Z" transform="translate(1367.423 2170.4)" fill="#6e00ff"/>
  </g>
</svg>
